<?xml version="1.0" encoding="UTF-8"?><svg id="Layer_2" xmlns="http://www.w3.org/2000/svg" viewBox="0 0 477.64 196.63"><defs><style>.cls-1{fill:#fff;}</style></defs><g id="Layer_1-2"><g><path class="cls-1" d="m149.91,167.54c-5.65,3.84-13.17,8.87-20.45,9.13-2.88.1-3.8-3.81-1.21-5.07,12.53-6.06,23.04-16,26.2-30.2,5.9-26.49-27.49-28.45-42.45-15.56-14.83,12.77-24.46,38.62-13.93,56.66,13.64,23.35,41.6,13.02,59.24,1.05,10.73-7.28,5.04-24.45-7.4-16Zm-32.11-10.25c-2.23.63-4.29-1.41-3.67-3.64.48-1.74,1.09-3.43,1.77-5.04,1.93-4.54,4.21-9.45,9.05-11.33,7.06-2.74,12.47,1.76,9.05,8.85-2.91,6.04-9.59,9.28-16.2,11.16Z"/><path class="cls-1" d="m302.86,119.84c-6.6,3.87-12.36,9.06-17.42,15.04-1.46,1.73-4.28.9-4.62-1.34-.31-2.04-.72-4.05-1.25-6-5.17-19.27-25.53-6.54-30.09,6.08-2.95,8.17,2.46,11.39,8.3,10.47,1.63-.26,3.11.96,3.1,2.61-.04,6.87-.56,16.59-1.1,24.91-.53-1.84-1.66-3.45-3.53-4.38-5.38-2.67-11.09,1.78-14.19,5.71-6.82,8.67-8.17-16.36-8.14-18.73.07-7.04.91-14.08,1.67-21.08,0-.06.01-.11.02-.17,3.09-16.61,4.65-33.72,6.72-49.76,1.85-14.36-18.08-7.7-20.02,2.86-1.89,10.25-3.36,20.56-4.61,30.89-.21,1.7-1.92,2.69-3.54,2.14-13.86-4.65-31.47,5.32-39.27,17.36-9.54,14.73-17.6,46.78,2.5,56.98,13.28,6.74,26.73,1.27,36.49-8.28,1.3-1.28,3.46-.94,4.25.7,2.23,4.59,5.64,8.35,11.04,9.88,12.12,3.44,22.17-6.86,28.89-15.41.54-.69.95-1.49,1.28-2.32-.37,5.15-.67,9-.75,10.03-1,13.22,16.2,8.88,19.33-.27,6.15-17.96,15.05-41.81,32.33-51.94,11.3-6.63,5.5-23.57-7.4-16Zm-90.13,28.77c-1.69,8.79-4.23,17.74-9.32,23.4-3.2,3.55-9.29,5.48-13.65,2.63-5.91-3.86-4.67-12.86-3.41-18.69,2.31-10.66,12.7-26.24,22.73-12.19.66.93,1.43,1.59,2.28,2.02,1.04.53,1.6,1.68,1.38,2.83Z"/><path class="cls-1" d="m76.3,129.3c-.21,12.89,1.21,32.17-8.14,42.53-8.41,9.32-8.32-1.95-8.27-8.52.1-13.03.45-25.9.54-38.93.09-12.39-19.04-3.41-20.06,5.35-1.17,10.04-2.53,18.56-4.95,28.38-1,4.04-3.04,11.29-5.09,14.78-2.1,3.57-4.48,2.77-6.6.39-3.83-4.31-3.57-17.99-3.53-22.86.06-8.04,1.08-16.03,2.32-23.97,2.2-14.04-18.31-8.03-20.02,2.86C-.03,145.46-6.15,195.5,19.5,196.31c9.36.3,16.34-5.39,21.47-12.55.36,1.32.81,2.59,1.4,3.79,8.48,17.45,29.78,6.09,38.7-4.42,13.59-16.03,14.93-36.6,15.25-56.7.23-14.25-19.84-8.3-20.02,2.86Z"/><path class="cls-1" d="m477.55,132.7c-.17-4.03-.59-8.05-1.23-12.02-1.22-7.49-3.27-14.84-6.1-21.89-4.62-11.49-11.46-22.07-19.36-31.58-7.03-8.46-15.06-16.11-23.9-22.67-14.38-10.68-30.09-19.57-46.62-26.47-18.17-7.58-37.31-12.8-56.86-15.17-20.48-2.48-41-3.74-61.6-2.3-9.84.69-19.58,1.98-29.3,3.6-14.05,2.49-27.92,6.06-41.42,10.7-4.19,1.44-8.35,2.98-12.47,4.63-4.12,1.65-8.19,3.4-12.22,5.26s-7.7,3.62-11.47,5.59c-3.8,1.99-7.54,4.1-11.2,6.33s-7.43,4.68-10.93,7.36c-2.29,1.76-4.62,3.58-6.67,5.62-1.14,1.14-1.45,2.79-.73,4.24.5,1.01,1.61,2.09,2.81,2.05.59-.02,1.15-.24,1.68-.51.91-.46,1.73-1.05,2.59-1.6s1.79-1.07,2.68-1.6c1.94-1.16,3.9-2.29,5.87-3.39.08-.04.16-.09.24-.13,3.8-2.12,7.66-4.12,11.61-5.94.99-.46,1.98-.9,2.98-1.34,9.28-4.04,18.83-7.58,28.47-10.68,9.16-2.95,18.46-5.45,27.87-7.47,8.79-1.89,17.68-3.36,26.61-4.38,20.03-2.29,40.37-2.22,60.45-.55,16.15,1.34,32.21,4.03,47.82,8.38,12.59,3.51,24.89,8.11,36.6,13.91,9.19,4.56,18.03,9.86,26.3,15.95,5.98,4.41,11.67,9.22,16.91,14.49,2.99,3.01,5.86,6.16,8.43,9.54.47.62.89,1.27,1.37,1.88,14.41,18.63,22.69,40.84,20.48,65.91-.04.44,0,.81,0,1.22-.61,5.76-2.03,11.5-4.05,16.84-2.98,7.87-8.18,13.11-11.37,2.22-2.1-7.18-1.79-16.8-1.73-24.35.06-7.62,1.29-14.54-1.07-21.81-3.44-10.57-18.73.7-19.42,7.62-.54,5.44-7.04,49.05-14.55,43.79-3.67-2.57-1.98-19.24-1.79-22.91.41-8.27,1.49-16.49,2.85-24.65,2.34-14.01-18.21-7.99-20.02,2.86-1.22,7.35-4.23,23.84-3.78,38.65.04,1.31-.85,2.46-2.14,2.69-2.1.38-4.34,1.59-6.47,3.92-7.45,8.15-5.87-11.77-5.66-13.31,1.1-8.1,2.69-16.14,4.81-24.04,2.44-9.08-3.17-11.74-9.05-10.12-.98.27-1.99-.12-2.65-.88-8.9-10.25-25.79-9.5-37.31-1.7-15.67,10.61-24.57,33.85-20.33,52.28,4.61,20.03,23.74,25.17,39.58,13.14,2.02-1.53,3.85-3.21,5.54-4.99.24.55.47,1.11.78,1.65,8.3,14.68,26.68,10.77,36.45.09,2.65,5.81,7.01,9.67,13.94,9.82,8.02.18,14.96-4.75,20.35-10.96,1.32-1.51,3.72-1.04,4.48.82,2.96,7.28,8.57,11.71,19.15,9.87,8.22-1.43,15.21-6.24,20.29-12.76,5.3-6.8,8.63-15.01,10.75-23.31,2.29-8.94,3.16-18.22,2.77-27.44Zm-130.77,19.86c-.66,1.66-1.32,3.32-2.01,4.97-2.74,6.6-10.13,25.49-18.99,15.66-6.01-6.67-2.84-19.77.85-26.76,4.95-9.39,16.51-11.06,20.14.16,0,.01,0,.02.01.03.64,1.95.74,4.03-.01,5.94Z"/></g></g></svg>